<svg width="64" height="63" viewBox="0 0 64 63" fill="none" xmlns="http://www.w3.org/2000/svg">
<g clip-path="url(#clip0_644_306)">
<path d="M63.2405 63C42.1609 63 21.0796 63 0 63C0 42.2498 0 21.498 0 0.747828C0.335524 0.166001 0.846322 0 1.51236 0C21.8425 0.011505 42.1709 0.00986147 62.501 0.00986147C63.6495 0.00986147 63.9917 0.346795 63.9917 1.47593C63.9917 21.4881 63.99 41.4987 64.0017 61.5109C64 62.1667 63.8314 62.6713 63.2405 63ZM2.14502 60.8568C22.0778 60.8568 41.9539 60.8568 61.8249 60.8568C61.8249 41.2587 61.8249 21.7084 61.8249 2.15144C41.9122 2.15144 22.0361 2.15144 2.14502 2.15144C2.14502 21.7363 2.14502 41.2719 2.14502 60.8568Z" fill="white"/>
<path d="M59.7331 31.5008C59.7331 38.3266 59.7331 45.154 59.7331 51.9798C59.7331 53.1566 59.5044 53.4179 58.3426 53.579C56.0423 53.8979 54.7436 55.1782 54.4198 57.4464C54.2595 58.5689 53.9875 58.8072 52.8507 58.8072C38.9389 58.8072 25.0289 58.8072 11.1171 58.8072C10.0171 58.8072 9.72997 58.5574 9.57807 57.4842C9.24755 55.1503 7.95553 53.8897 5.56346 53.5659C4.5235 53.4245 4.25809 53.127 4.25809 52.0801C4.25642 38.3661 4.25642 24.652 4.25809 10.938C4.25809 9.86642 4.51516 9.58701 5.61688 9.4358C7.9572 9.11366 9.24755 7.84153 9.5764 5.5323C9.72997 4.45247 10.0137 4.20265 11.1088 4.20265C25.0406 4.20101 38.9723 4.20101 52.9041 4.20265C53.9641 4.20265 54.2629 4.46398 54.4081 5.4945C54.7403 7.86618 56.0273 9.12188 58.4578 9.44895C59.4543 9.58208 59.7314 9.89107 59.7314 10.9002C59.7331 17.7655 59.7331 24.634 59.7331 31.5008ZM57.5864 11.4886C54.7253 10.8263 52.9876 9.09229 52.3249 6.31793C38.7537 6.31793 25.2225 6.31793 11.6597 6.31793C11.0003 9.12681 9.22585 10.8509 6.41646 11.4919C6.41646 24.8789 6.41646 38.1984 6.41646 51.5245C9.26424 52.1836 11.002 53.9176 11.6647 56.692C25.2359 56.692 38.767 56.692 52.3299 56.692C52.9892 53.8847 54.7653 52.1606 57.5864 51.5163C57.5864 38.1491 57.5864 24.8476 57.5864 11.4886Z" fill="white"/>
<path d="M31.9884 50.4101C27.5532 50.4101 23.1179 50.4101 18.6826 50.4101C17.3656 50.4101 17.0701 50.1159 17.0684 48.8142C17.0668 47.708 17.0618 46.6003 17.0701 45.4941C17.0785 44.4768 17.4374 44.102 18.4489 44.1004C27.4864 44.0954 36.5222 44.0954 45.5596 44.1004C46.5428 44.1004 46.9118 44.4768 46.9218 45.4481C46.9335 46.6167 46.9301 47.7853 46.9234 48.9539C46.9184 50.0764 46.5762 50.4101 45.4194 50.4101C40.9408 50.4117 36.4638 50.4101 31.9884 50.4101ZM19.2368 48.2652C27.7535 48.2652 36.2384 48.2652 44.7534 48.2652C44.7534 47.5765 44.7534 46.9273 44.7534 46.2403C36.2367 46.2403 27.7518 46.2403 19.2368 46.2403C19.2368 46.929 19.2368 47.5782 19.2368 48.2652Z" fill="white"/>
<path d="M39.4347 27.2833C34.4503 27.2833 29.5242 27.2833 24.5598 27.2833C24.5598 26.6094 24.5598 25.9635 24.5598 25.2354C25.2309 25.2354 25.9019 25.2354 26.6113 25.2354C26.6113 23.4439 26.6113 21.7346 26.6113 19.9464C26.2908 19.9464 25.9854 19.9464 25.6799 19.9464C25.1708 19.948 24.7935 19.7376 24.6099 19.2577C24.4246 18.7712 24.5949 18.3702 24.9755 18.0513C25.8168 17.3495 26.6664 16.6576 27.5144 15.9623C28.713 14.9778 29.9082 13.9917 31.1117 13.0121C31.7477 12.496 32.2235 12.4829 32.8411 12.9858C34.8759 14.6458 36.9041 16.3141 38.9339 17.9807C39.3513 18.3242 39.5833 18.7351 39.3679 19.2758C39.166 19.782 38.7503 19.9628 38.2228 19.9464C38.0559 19.9414 37.889 19.9431 37.7237 19.948C37.6236 19.9497 37.5234 19.9612 37.3798 19.971C37.3798 21.7067 37.3798 23.416 37.3798 25.2058C38.0542 25.2058 38.7286 25.2058 39.433 25.2058C39.4347 25.9323 39.4347 26.5782 39.4347 27.2833ZM30.8864 25.1812C30.8864 23.4373 30.8864 21.7297 30.8864 19.994C30.1853 19.994 29.5159 19.994 28.8348 19.994C28.8348 21.7477 28.8348 23.4571 28.8348 25.1812C29.5359 25.1812 30.1919 25.1812 30.8864 25.1812ZM33.1048 25.1664C33.8126 25.1664 34.4803 25.1664 35.1547 25.1664C35.1547 23.4078 35.1547 21.6984 35.1547 19.9858C34.4503 19.9858 33.7926 19.9858 33.1048 19.9858C33.1048 21.7297 33.1048 23.4373 33.1048 25.1664ZM31.9948 15.0239C30.858 15.9574 29.773 16.8499 28.6178 17.7999C30.9231 17.7999 33.0982 17.7999 35.3784 17.7999C34.2049 16.8384 33.1249 15.9508 31.9948 15.0239Z" fill="white"/>
<path d="M35.1733 34.6613C34.6925 34.6613 34.3186 34.6547 33.948 34.663C33.4723 34.6728 33.0884 34.709 32.8346 34.0992C32.5408 33.3958 31.6695 33.4599 31.0502 34.1978C31.2705 34.3671 31.4875 34.5413 31.7095 34.7057C32.6076 35.3697 33.5073 36.0304 34.4054 36.6944C35.1749 37.2631 35.3402 37.748 35.0631 38.6634C34.8361 39.4195 34.4138 40.0769 33.6976 40.4204C33.1451 40.685 32.9832 41.0269 33.06 41.5726C33.0767 41.6876 33.0333 41.8092 33.0149 41.9605C32.3372 41.9605 31.6795 41.9605 31.0318 41.9605C30.9984 41.9128 30.95 41.8783 30.9534 41.8487C31.0535 41.1025 30.7497 40.6587 30.0703 40.2561C29.2123 39.7482 28.835 38.8689 28.82 37.794C29.456 37.794 30.0369 37.7759 30.6128 37.8071C30.7447 37.8137 30.92 37.9715 30.9834 38.1013C31.4208 38.9971 32.2504 39.1006 32.9298 38.2624C32.6794 38.0668 32.4323 37.863 32.1753 37.6724C31.3106 37.0314 30.4426 36.3969 29.5779 35.7576C28.8267 35.2021 28.6548 34.732 28.9085 33.8445C29.1305 33.0654 29.5578 32.3899 30.2957 32.0316C30.8432 31.7653 31.0068 31.4202 30.9283 30.8778C30.9116 30.7644 30.95 30.6428 30.9684 30.4883C31.6528 30.4883 32.3071 30.4883 32.9548 30.4883C32.9882 30.5343 33.0349 30.5688 33.0316 30.5984C32.9498 31.3331 33.2186 31.7933 33.9113 32.1927C34.776 32.694 35.1482 33.5799 35.1733 34.6613Z" fill="white"/>
<path d="M22.4302 35.7314C23.8324 35.7314 25.2095 35.7314 26.6217 35.7314C26.6217 36.4119 26.6217 37.0578 26.6217 37.7498C25.2329 37.7498 23.8541 37.7498 22.4302 37.7498C22.4302 37.0874 22.4302 36.4267 22.4302 35.7314Z" fill="white"/>
<path d="M37.3867 35.7266C38.8039 35.7266 40.1661 35.7266 41.5666 35.7266C41.5666 36.4004 41.5666 37.0464 41.5666 37.7416C40.1928 37.7416 38.8139 37.7416 37.3867 37.7416C37.3867 37.0957 37.3867 36.4366 37.3867 35.7266Z" fill="white"/>
</g>
<defs>
<clipPath id="clip0_644_306">
<rect width="64" height="63" fill="white"/>
</clipPath>
</defs>
</svg>
