<svg width="63" height="64" viewBox="0 0 63 64" fill="none" xmlns="http://www.w3.org/2000/svg">
<path d="M46.085 61.7026C46.5747 61.7026 46.9625 61.7026 47.4472 61.7026C47.4472 61.377 47.4472 61.0765 47.4472 60.7759C47.4472 48.7794 47.4472 36.7828 47.4488 24.7879C47.4488 24.4774 47.4439 24.1651 47.4751 23.8563C47.5951 22.6474 48.5038 21.7575 49.7017 21.7491C52.7843 21.7291 55.8653 21.7291 58.9479 21.7475C60.177 21.7558 61.1251 22.6524 61.1892 23.903C61.2517 25.0985 61.2303 26.3006 61.2057 27.4995C61.1925 28.1373 60.7768 28.5347 60.2296 28.5313C59.6841 28.528 59.2815 28.1289 59.2634 27.4878C59.2355 26.4659 59.2371 25.4441 59.2568 24.4223C59.2667 23.908 59.081 23.7243 58.565 23.7277C55.811 23.7477 53.0571 23.736 50.3031 23.7377C49.4223 23.7377 49.4174 23.7394 49.4174 24.6176C49.4157 28.1273 49.4174 31.6369 49.4174 35.1482C49.4174 43.7002 49.4174 52.2539 49.4174 60.806C49.4174 61.0898 49.4174 61.372 49.4174 61.6909C52.712 61.6909 55.9376 61.6909 59.2519 61.6909C59.2519 61.392 59.2519 61.1115 59.2519 60.8327C59.2519 51.2805 59.2519 41.7284 59.2535 32.1745C59.2535 31.8873 59.2453 31.5918 59.3028 31.313C59.4047 30.8154 59.7481 30.5466 60.2395 30.5483C60.7308 30.5499 61.0725 30.8204 61.1711 31.3197C61.2254 31.5985 61.2204 31.894 61.2204 32.1812C61.2221 41.7117 61.2221 51.2421 61.2221 60.7726C61.2221 61.0598 61.2221 61.3453 61.2221 61.731C61.4751 61.731 61.6855 61.716 61.8941 61.7343C62.4627 61.7844 62.8521 62.1885 62.8571 62.7161C62.862 63.2454 62.4742 63.6645 61.9139 63.7196C61.7183 63.7396 61.5211 63.7262 61.324 63.7262C41.5416 63.7262 21.7608 63.7262 1.97841 63.7262C1.75987 63.7262 1.53804 63.7463 1.32442 63.7129C0.778881 63.6277 0.445312 63.2921 0.445312 62.7278C0.445312 62.1634 0.777237 61.8295 1.32278 61.741C1.51503 61.7109 1.7155 61.7276 1.91268 61.7276C5.62794 61.7276 9.34484 61.7276 13.0601 61.7276C13.2967 61.7276 13.535 61.7276 13.8357 61.7276C13.8505 61.4505 13.8735 61.2167 13.8735 60.983C13.8751 56.4281 13.8751 51.8749 13.8751 47.3201C13.8751 46.4001 13.8718 46.4001 12.9632 46.3984C10.2963 46.3984 7.62935 46.3984 4.96245 46.3984C4.04226 46.3984 4.04062 46.4001 4.04062 47.3752C4.04062 51.2405 4.04062 55.1057 4.04062 58.971C4.04062 59.1931 4.05048 59.4168 4.03076 59.6372C3.97653 60.27 3.58217 60.6674 3.03663 60.654C2.51738 60.6424 2.14109 60.2567 2.08358 59.6623C2.06714 59.4853 2.07372 59.3066 2.07372 59.1296C2.07372 55.1525 2.07207 51.177 2.07372 47.1999C2.07536 45.253 2.91996 44.3982 4.82935 44.3982C7.62771 44.3982 10.4244 44.3965 13.2228 44.3982C14.9481 44.3998 15.8404 45.2998 15.8437 47.0696C15.8502 51.6679 15.8453 56.2662 15.847 60.8644C15.847 61.1266 15.847 61.387 15.847 61.6859C16.3153 61.6859 16.7211 61.6859 17.2092 61.6859C17.2092 61.4154 17.2092 61.1566 17.2092 60.8978C17.2092 50.5459 17.2092 40.1939 17.2092 29.8403C17.2092 27.9252 18.0488 27.067 19.9188 27.067C22.7171 27.0653 25.5139 27.0653 28.3122 27.067C30.0803 27.0687 30.9791 27.9753 30.9791 29.7652C30.9808 40.0954 30.9808 50.4257 30.9808 60.7559C30.9808 61.0431 30.9808 61.3319 30.9808 61.6709C31.4096 61.6709 31.8122 61.6709 32.3183 61.6709C32.3183 61.4405 32.3183 61.185 32.3183 60.9295C32.3183 52.7983 32.3183 44.6686 32.3183 36.5374C32.3183 34.6006 33.1728 33.7323 35.0756 33.7307C37.8953 33.7307 40.715 33.7273 43.5348 33.7323C45.1829 33.734 46.0866 34.6506 46.0866 36.332C46.0899 44.5067 46.0883 52.6814 46.0883 60.8577C46.085 61.1232 46.085 61.3854 46.085 61.7026ZM28.9859 61.7109C28.9958 61.5022 29.0073 61.3503 29.0073 61.2C29.0089 50.7379 29.004 40.2758 29.0188 29.812C29.0188 29.2142 28.8052 29.0556 28.2481 29.0606C25.5155 29.0823 22.7845 29.0706 20.0519 29.0706C19.1744 29.0706 19.1728 29.0723 19.1728 29.9422C19.1728 40.2941 19.1728 50.6444 19.1728 60.9963C19.1728 61.2284 19.1728 61.4622 19.1728 61.7109C22.4838 61.7109 25.693 61.7109 28.9859 61.7109ZM44.0885 61.7109C44.1017 61.5423 44.1164 61.4354 44.1164 61.3286C44.1181 53.0203 44.1132 44.7137 44.1263 36.4055C44.1279 35.8662 43.9308 35.7242 43.4312 35.7276C40.6772 35.7459 37.9232 35.7359 35.1693 35.7359C34.2836 35.7359 34.2819 35.7376 34.2819 36.6125C34.2819 44.7421 34.2819 52.8717 34.2819 61.0013C34.2819 61.2334 34.2819 61.4672 34.2819 61.7093C37.5979 61.7109 40.8087 61.7109 44.0885 61.7109Z" fill="white"/>
<path d="M27.1474 17.4112C25.8904 18.9523 24.423 19.4616 22.6007 18.7737C22.4495 18.7169 22.134 18.8989 21.9927 19.0592C19.403 21.9778 16.8282 24.9114 14.25 27.8417C13.4645 28.7349 12.6791 29.6265 11.869 30.5482C12.546 31.6051 12.7514 32.7288 12.362 33.9176C11.7458 35.801 9.75586 36.8295 7.88591 36.2518C6.03567 35.6807 4.94624 33.6571 5.46713 31.7604C5.98638 29.872 7.87276 28.7249 9.746 29.1791C10.1075 29.2676 10.3589 29.2809 10.6498 28.9486C13.9263 25.1936 17.2209 21.4552 20.5188 17.7201C20.8047 17.3962 20.9082 17.1474 20.7291 16.6816C19.9568 14.6747 21.084 12.4473 23.1019 11.8796C25.1493 11.3036 27.2197 12.5776 27.5861 14.7131C27.6913 15.3225 27.9559 15.6063 28.4702 15.8518C31.1174 17.1124 33.7481 18.408 36.3739 19.687C38.6054 18.0107 39.8131 17.9656 41.854 19.5167C44.935 16.9705 48.0291 14.4125 51.0887 11.883C50.9688 11.3303 50.8061 10.8428 50.7634 10.3452C50.6221 8.7223 51.5488 7.24965 53.0277 6.66694C54.5082 6.08423 56.1859 6.54506 57.1587 7.80231C58.1462 9.08128 58.1873 10.8829 57.2556 12.2069C56.3354 13.5159 54.6791 14.092 53.192 13.5209C52.658 13.3156 52.3376 13.4057 51.9235 13.753C49.0577 16.1523 46.1739 18.5333 43.2836 20.9025C42.9319 21.1914 42.7709 21.4669 42.7857 21.9511C42.8498 24.0298 41.2805 25.6995 39.2873 25.7362C37.258 25.7729 35.6476 24.155 35.5852 22.0479C35.5786 21.8275 35.4702 21.4902 35.3108 21.4118C32.6094 20.066 29.8932 18.7503 27.1474 17.4112ZM24.0796 13.7463C23.189 13.7463 22.461 14.4843 22.4545 15.3926C22.4479 16.3076 23.161 17.0573 24.05 17.0706C24.9603 17.084 25.731 16.3093 25.7228 15.3876C25.7162 14.4943 24.9669 13.7463 24.0796 13.7463ZM39.1904 23.7376C40.081 23.7426 40.8171 23.0113 40.8336 22.103C40.85 21.1663 40.1056 20.4 39.1871 20.41C38.3047 20.42 37.5636 21.1814 37.5653 22.0763C37.5653 22.9696 38.3113 23.7326 39.1904 23.7376ZM55.9592 10.0864C55.969 9.17812 55.2559 8.43011 54.3603 8.41341C53.4681 8.39672 52.7303 9.11801 52.7073 10.0296C52.6826 10.973 53.4188 11.7444 54.3357 11.7377C55.2296 11.7327 55.9493 11.0014 55.9592 10.0864ZM10.5807 32.7438C10.589 31.8355 9.87253 31.0892 8.97863 31.0741C8.08638 31.0591 7.35023 31.7821 7.32887 32.6937C7.3075 33.6354 8.04366 34.4068 8.96056 34.3984C9.85445 34.3901 10.5725 33.6571 10.5807 32.7438Z" fill="white"/>
</svg>
