<svg width="63" height="36" viewBox="0 0 63 36" fill="none" xmlns="http://www.w3.org/2000/svg">
<g clip-path="url(#clip0_644_323)">
<path d="M40.1824 34.235C39.5678 32.2432 38.9746 30.3166 38.3782 28.3917C38.107 27.5166 37.8129 26.6497 37.5664 25.7681C37.4744 25.4399 37.32 25.3501 36.9962 25.3517C33.327 25.3615 29.6561 25.3534 25.9869 25.3713C25.8127 25.3713 25.5268 25.5264 25.4824 25.6685C24.5951 28.4864 23.7357 31.3109 22.873 34.1354C22.8681 34.1517 22.8812 34.1746 22.8927 34.2334C23.5336 34.2334 24.181 34.2252 24.83 34.235C25.4807 34.2448 25.8423 34.5583 25.8423 35.0905C25.8423 35.613 25.4709 35.9623 24.835 35.9656C22.6758 35.977 20.515 35.9705 18.3559 35.9705C13.0286 35.9705 7.70305 35.9705 2.37582 35.9705C1.12864 35.9705 0.829576 35.564 1.19765 34.3787C2.20164 31.1395 3.20727 27.8987 4.21127 24.6595C4.50047 23.7289 4.65821 23.613 5.63591 23.613C7.16737 23.613 8.69882 23.577 10.2286 23.6293C10.8974 23.6521 11.1932 23.4758 11.392 22.7999C12.258 19.8448 13.1995 16.9109 14.1131 13.9705C14.3793 13.115 14.5486 12.9909 15.4573 12.9893C17.0923 12.9876 18.7289 12.9681 20.3638 13.0023C20.8486 13.0121 21.0458 12.8603 21.1838 12.4048C22.0925 9.39745 23.0308 6.39826 23.9608 3.39581C24.2369 2.50602 24.4143 2.37541 25.3444 2.37377C29.454 2.37377 33.5653 2.37214 37.6749 2.37377C38.5704 2.37377 38.7643 2.51418 39.0256 3.35663C39.9606 6.37867 40.9021 9.39745 41.819 12.426C41.9472 12.8521 42.1263 13.0105 42.593 13.0023C44.2279 12.9697 45.8646 12.9893 47.4995 12.9909C48.4559 12.9909 48.6136 13.1052 48.8897 13.995C49.8296 17.0154 50.7793 20.0325 51.693 23.0611C51.8277 23.5085 52.0265 23.6325 52.4751 23.626C54.1528 23.5999 55.8305 23.6325 57.5082 23.6081C58.1836 23.5983 58.5385 23.8677 58.734 24.5077C59.7577 27.8725 60.8127 31.2277 61.8495 34.5877C62.1371 35.5215 61.7904 35.9721 60.7847 35.9721C55.8568 35.9754 50.9289 35.9738 45.9993 35.9738C43.5033 35.9738 41.0089 35.9738 38.5129 35.9721C38.3042 35.9721 38.0873 35.9885 37.8869 35.9444C37.3972 35.8366 37.1063 35.5346 37.1556 35.0121C37.2016 34.5256 37.5106 34.2595 37.9887 34.2432C38.6986 34.2187 39.4084 34.235 40.1824 34.235ZM20.446 34.2138C19.5455 31.3142 18.6779 28.4913 17.7725 25.6799C17.7216 25.5232 17.3732 25.3713 17.1613 25.3697C13.5742 25.3485 9.98873 25.3599 6.40164 25.3354C5.92676 25.3321 5.76408 25.5003 5.63756 25.9232C4.8554 28.5125 4.04202 31.0938 3.24178 33.6783C3.19084 33.8448 3.16948 34.0195 3.13005 34.2138C8.91408 34.2138 14.6373 34.2138 20.446 34.2138ZM59.8415 34.2072C59.8481 34.1468 59.8678 34.1011 59.8563 34.0652C58.9953 31.2603 58.1392 28.4538 57.2535 25.6554C57.2092 25.515 56.9216 25.3615 56.7458 25.3615C53.0749 25.3468 49.404 25.3583 45.7347 25.3501C45.4077 25.3501 45.2582 25.4448 45.1662 25.7681C44.8671 26.8081 44.5303 27.8366 44.2099 28.8717C43.6627 30.6366 43.1171 32.4032 42.5568 34.2089C48.3622 34.2072 54.1019 34.2072 59.8415 34.2072ZM12.953 23.577C18.7584 23.577 24.4915 23.577 30.2772 23.577C30.2164 23.3436 30.1737 23.1444 30.1129 22.9501C29.3192 20.3868 28.5141 17.8268 27.7369 15.257C27.6153 14.8521 27.4509 14.7134 27.0106 14.7166C23.4054 14.7379 19.7986 14.7281 16.1934 14.7297C16.0291 14.7297 15.8631 14.7493 15.684 14.7607C14.7753 17.6946 13.8716 20.6105 12.953 23.577ZM32.7207 23.5787C38.5063 23.5787 44.2378 23.5787 50.0448 23.5787C49.1214 20.5991 48.2127 17.6701 47.3122 14.764C47.1791 14.746 47.1183 14.7313 47.0559 14.7313C43.3242 14.7297 39.5925 14.7362 35.8608 14.7166C35.4681 14.715 35.3711 14.8979 35.2791 15.1966C34.4838 17.7811 33.6819 20.364 32.8833 22.9485C32.8242 23.1444 32.7815 23.3436 32.7207 23.5787ZM40.1758 12.9664C39.277 10.0619 38.4061 7.21949 37.4991 4.38683C37.453 4.24479 37.1162 4.11581 36.9124 4.11581C33.3056 4.09949 29.6972 4.11092 26.0904 4.09459C25.6812 4.09296 25.5169 4.2203 25.4002 4.60887C24.6246 7.17867 23.8211 9.7403 23.0258 12.3052C22.9617 12.5125 22.9009 12.7199 22.827 12.9664C28.6324 12.9664 34.3556 12.9664 40.1758 12.9664ZM31.4209 21.2832C31.4718 21.2864 31.5228 21.2881 31.5753 21.2913C32.2458 19.1248 32.9178 16.9583 33.5981 14.7607C32.1669 14.7607 30.8162 14.7607 29.4014 14.7607C30.0833 16.9681 30.7521 19.1264 31.4209 21.2832ZM19.5258 25.3681C20.2242 27.6179 20.9028 29.804 21.6324 32.155C22.3636 29.7958 23.0423 27.6048 23.7357 25.3681C22.3028 25.3681 20.9653 25.3681 19.5258 25.3681ZM39.2688 25.3779C39.9688 27.6342 40.6458 29.8138 41.3688 32.1452C42.0951 29.8023 42.7737 27.613 43.4671 25.3779C42.0556 25.3779 40.7033 25.3779 39.2688 25.3779Z" fill="white"/>
<path d="M4.5711 9.61802C4.69105 9.65231 4.81429 9.68006 4.93096 9.72088C6.23565 10.1633 7.54199 10.6025 8.84176 11.0564C9.44645 11.267 9.70608 11.7046 9.54997 12.1797C9.37908 12.6972 8.90091 12.8997 8.25843 12.6858C6.95209 12.2499 5.65068 11.7943 4.34763 11.3454C3.84481 11.1723 3.53425 10.8066 3.715 10.3021C3.82673 9.99027 4.18824 9.76823 4.438 9.50537C4.48401 9.54129 4.52838 9.57884 4.5711 9.61802Z" fill="white"/>
<path d="M54.1874 12.8899C53.9376 12.6352 53.6123 12.4262 53.4759 12.1324C53.2853 11.7177 53.5104 11.3079 53.9179 11.1593C55.3705 10.6287 56.8362 10.1307 58.3102 9.66216C58.7423 9.52502 59.163 9.76829 59.2419 10.1862C59.2994 10.4932 59.1663 11.0711 58.9642 11.1528C57.4376 11.7699 55.8733 12.2924 54.1874 12.8899Z" fill="white"/>
<path d="M14.4761 0.00657562C14.6109 0.140453 14.956 0.333106 15.0628 0.615555C15.5721 1.9527 16.029 3.30943 16.4792 4.6678C16.655 5.20005 16.4003 5.69474 15.9189 5.81392C15.3881 5.94454 15.0184 5.71923 14.8409 5.21474C14.366 3.86454 13.8895 2.51433 13.4409 1.15596C13.2405 0.548616 13.6858 -0.0244448 14.4761 0.00657562Z" fill="white"/>
<path d="M49.6324 0.870238C49.588 1.02861 49.5519 1.19024 49.4993 1.34697C49.077 2.58289 48.653 3.82044 48.2225 5.05309C47.9974 5.69636 47.5669 5.97228 47.0657 5.81391C46.5382 5.64738 46.3542 5.15432 46.5842 4.4784C47.018 3.20167 47.4535 1.92656 47.9021 0.654728C48.0648 0.192687 48.4197 -0.122415 48.9061 0.0441155C49.2232 0.151871 49.4615 0.494728 49.7342 0.731462C49.6981 0.778809 49.6652 0.824524 49.6324 0.870238Z" fill="white"/>
<path d="M11.0241 8.22366C10.7021 8.02775 10.4441 7.92652 10.2601 7.74856C9.35958 6.87999 8.47226 5.99673 7.59479 5.10367C7.16921 4.67265 7.15113 4.20081 7.50277 3.8302C7.85606 3.45795 8.39503 3.47265 8.83376 3.9004C9.7293 4.77387 10.6363 5.63918 11.4793 6.56162C11.688 6.78856 11.7816 7.24734 11.7143 7.55428C11.6633 7.80407 11.2887 7.98366 11.0241 8.22366Z" fill="white"/>
<path d="M55.8501 4.38366C55.653 4.69876 55.5478 4.95508 55.367 5.13794C54.506 6.01794 53.6335 6.88488 52.7511 7.74202C52.2894 8.191 51.8013 8.20896 51.4234 7.83345C51.0471 7.45794 51.0783 6.97631 51.5351 6.5159C52.4159 5.62774 53.2835 4.72325 54.2135 3.88733C54.4419 3.68161 54.9152 3.59835 55.2224 3.67345C55.4673 3.73386 55.6316 4.1208 55.8501 4.38366Z" fill="white"/>
<path d="M31.4882 34.2353C31.9286 34.2353 32.3689 34.2157 32.8077 34.2402C33.2891 34.2679 33.5915 34.5455 33.6293 35.0238C33.672 35.543 33.3713 35.9022 32.88 35.9332C31.9614 35.9904 31.0363 35.9887 30.1178 35.9365C29.6265 35.9087 29.3208 35.5577 29.3586 35.0353C29.3964 34.521 29.7185 34.2549 30.2295 34.2353C30.6485 34.2189 31.0675 34.232 31.4865 34.232C31.4882 34.2336 31.4882 34.2353 31.4882 34.2353Z" fill="white"/>
</g>
<defs>
<clipPath id="clip0_644_323">
<rect width="63" height="36" fill="white"/>
</clipPath>
</defs>
</svg>
