<svg width="63" height="64" viewBox="0 0 63 64" fill="none" xmlns="http://www.w3.org/2000/svg">
<g clip-path="url(#clip0_644_335)">
<path d="M14.1526 0C15.9776 0.370676 17.8009 0.741351 19.6259 1.11036C19.7262 1.13039 19.8298 1.14041 19.9284 1.16546C20.5351 1.31907 20.8705 1.75821 20.7785 2.26914C20.6815 2.80177 20.2441 3.10733 19.6144 3.00214C18.6246 2.83517 17.6464 2.59974 16.6566 2.43611C15.4054 2.22906 14.146 1.88677 12.8948 1.91349C10.0077 1.97694 7.92954 3.47634 6.51065 6.12951C21.0284 7.71239 35.4606 9.28693 49.9306 10.8648C49.9306 10.232 49.9306 9.65594 49.9306 9.02479C48.446 8.72758 46.9663 8.42703 45.4832 8.13483C38.2458 6.70556 31.0083 5.27629 23.7708 3.84701C23.6705 3.82698 23.5718 3.79859 23.4716 3.77188C22.8682 3.61325 22.5525 3.17746 22.6594 2.65317C22.7679 2.12387 23.2348 1.83501 23.8382 1.95022C25.5086 2.27248 27.1758 2.60475 28.8446 2.93368C35.9818 4.34459 43.1173 5.7605 50.2562 7.15471C50.4683 7.19645 50.7741 7.08625 50.9483 6.93932C52.8802 5.29298 54.794 3.62327 56.7127 1.96024C57.9425 0.893295 59.2397 1.33243 59.5159 2.93535C60.3676 7.88604 60.9233 12.8685 60.8904 17.901C60.8641 21.9734 60.463 26.0041 59.3186 29.9312C59.0967 30.6926 58.5196 31.0332 57.9524 30.716C57.4295 30.4238 57.4262 29.9646 57.5364 29.4203C57.9524 27.3866 58.4144 25.3562 58.7054 23.3041C59.1822 19.9313 59.174 16.5285 58.8829 13.1423C58.6215 10.0967 58.1875 7.06788 57.8274 4.03068C57.8126 3.91046 57.7715 3.79358 57.7288 3.61826C57.5956 3.70342 57.4936 3.75351 57.4098 3.82698C55.644 5.35142 53.8766 6.87253 52.1239 8.412C51.9628 8.55393 51.8164 8.81774 51.8148 9.02645C51.8 18.836 51.8033 28.6472 51.8049 38.4568C51.8049 38.5152 51.8263 38.572 51.8822 38.8592C52.7421 37.9141 53.5839 37.1293 54.2547 36.216C54.9732 35.2376 55.5026 34.1189 56.1783 33.1054C56.3658 32.8248 56.7834 32.5477 57.0925 32.5493C57.3638 32.5527 57.6893 32.9083 57.8784 33.1888C57.982 33.3408 57.9162 33.6864 57.8192 33.8935C56.4036 36.8789 54.4586 39.4052 51.6438 41.1701C51.2673 41.4055 50.8974 41.6209 50.4436 41.3671C49.9684 41.1016 49.9504 40.6541 49.952 40.1799C49.9553 31.3071 49.9553 22.4342 49.9553 13.5614C49.9553 13.3143 49.9553 13.0672 49.9553 12.7549C46.6703 12.3976 43.4231 12.0453 40.0987 11.6846C40.0987 12.8234 40.1003 13.8803 40.0987 14.9372C40.0954 16.6337 39.2766 17.4635 37.6045 17.4668C37.2198 17.4668 36.8367 17.4668 36.3665 17.4668C37.7985 28.704 39.2207 39.8593 40.6511 51.0981C41.0178 51.0981 41.3597 51.0898 41.7017 51.0998C42.6849 51.1265 43.216 51.6525 43.2357 52.6593C43.2571 53.7213 43.2423 54.7832 43.2423 55.8468C43.2423 56.0722 43.2423 56.2976 43.2423 56.6099C43.7832 56.6099 44.2666 56.6065 44.75 56.6099C46.0768 56.6199 46.7394 57.2961 46.7476 58.6586C46.7542 59.7422 46.7525 60.8242 46.7558 61.9079C46.7558 61.9479 46.7722 61.988 46.8002 62.1182C47.0172 62.1182 47.254 62.1182 47.4907 62.1182C52.2078 62.1182 56.9248 62.1182 61.6418 62.1182C61.8473 62.1182 62.0578 62.0982 62.2551 62.1433C62.7023 62.2468 62.9801 62.5457 62.9949 63.0182C63.0114 63.5208 62.7368 63.843 62.2649 63.9633C62.0709 64.0117 61.8572 63.9917 61.6533 63.9917C41.5538 63.9933 21.4542 63.9917 1.35464 64.0017C0.779191 64.0017 0.304035 63.9015 -0.00341797 63.3688C-0.00341797 63.1601 -0.00341797 62.9514 -0.00341797 62.7444C0.424057 61.9579 1.16556 62.1049 1.84623 62.1283C2.23425 62.1416 2.42168 62.0281 2.54499 61.634C3.24046 59.3933 3.95237 57.1575 4.68895 54.9318C4.81554 54.5461 4.72018 54.3491 4.44561 54.0903C2.22274 51.9914 2.19972 48.5518 4.37656 46.4179C4.87144 45.9337 5.37455 45.8903 5.78558 46.2961C6.17853 46.6834 6.1325 47.2194 5.70009 47.7387C5.42387 48.0693 5.12957 48.4049 4.94214 48.7873C4.23023 50.2399 4.69059 52.0198 5.98124 52.9649C7.30477 53.935 9.05248 53.8164 10.2609 52.6193C11.9034 50.9896 13.5147 49.3266 15.1391 47.6769C16.096 46.7051 17.0709 45.7501 18.0032 44.7549C19.2872 43.3824 19.2543 41.337 17.9637 40.0313C16.6714 38.7239 14.6688 38.7106 13.3124 40.0079C12.9244 40.3786 12.5545 40.7693 12.178 41.1517C10.9745 42.3739 9.77426 43.5995 8.56582 44.8167C8.04791 45.3376 7.52179 45.3794 7.1124 44.9586C6.72932 44.5662 6.76549 44.0069 7.23407 43.5243C8.31426 42.4123 9.39775 41.3036 10.4993 40.2133C10.7986 39.9161 10.9367 39.6172 10.935 39.1814C10.9235 30.3503 10.9268 21.5192 10.9268 12.6881C10.9268 12.4694 10.9268 12.2507 10.9268 12.0002C10.644 12.0002 10.4615 12.0002 10.2774 12.0002C8.64802 11.9919 7.88843 11.2088 7.88515 9.53238C7.88515 9.08322 7.88515 8.63407 7.88515 8.16822C6.89866 8.06303 6.00425 7.96953 5.10984 7.86935C4.24996 7.7725 3.89812 7.13634 4.29106 6.35993C4.60016 5.75048 4.93228 5.15106 5.2759 4.55998C6.30184 2.80177 7.73224 1.49439 9.60491 0.743021C10.3957 0.425776 11.2408 0.243778 12.0596 0C12.7584 0 13.4555 0 14.1526 0ZM12.7995 37.9625C14.8793 36.9941 16.2801 36.9206 17.8322 37.6653C21.058 39.2132 21.7995 43.4876 19.2626 46.1224C16.9542 48.5201 14.5949 50.8661 12.275 53.2504C12.1106 53.4207 11.956 53.7747 12.0185 53.9717C12.8192 56.5698 13.6577 59.1578 14.4995 61.7426C14.5472 61.8878 14.7116 62.0949 14.825 62.0982C15.8214 62.1266 16.8194 62.1149 17.8618 62.1149C17.8618 60.8559 17.847 59.6721 17.8667 58.4883C17.8864 57.3278 18.5868 56.6316 19.7213 56.6115C20.2474 56.6015 20.7752 56.6099 21.3703 56.6099C21.3703 56.3143 21.3703 56.0906 21.3703 55.8668C21.3703 54.7832 21.3555 53.7012 21.3786 52.6176C21.3999 51.6525 21.9359 51.1299 22.8895 51.0998C23.2332 51.0898 23.5768 51.0981 23.9599 51.0981C25.3919 39.8643 26.8141 28.6973 28.2445 17.4668C27.8236 17.4668 27.5194 17.4668 27.2153 17.4668C25.2406 17.4668 24.5123 16.7255 24.5123 14.7135C24.5123 13.1556 24.5123 11.5961 24.5123 9.97986C21.5857 9.66261 18.7085 9.35038 15.7786 9.03313C15.7967 9.97151 15.8904 10.9232 15.1111 11.4125C14.4551 11.8249 13.633 11.9601 12.8011 12.2473C12.7995 20.6827 12.7995 29.2967 12.7995 37.9625ZM44.8618 62.0982C44.8618 60.8693 44.8618 59.6955 44.8618 58.5233C36.4652 58.5233 28.1146 58.5233 19.7509 58.5233C19.7509 59.7356 19.7509 60.9077 19.7509 62.0982C28.1343 62.0982 36.4717 62.0982 44.8618 62.0982ZM41.3647 53.0083C35.3126 53.0083 29.2984 53.0083 23.2644 53.0083C23.2644 54.2172 23.2644 55.3876 23.2644 56.5598C29.3263 56.5598 35.3406 56.5598 41.3647 56.5598C41.3647 55.3542 41.3647 54.1971 41.3647 53.0083ZM25.821 51.0931C27.1051 51.0931 28.2922 51.1015 29.4776 51.0848C29.6486 51.0831 29.8261 50.9763 29.984 50.8878C32.0918 49.7307 34.1979 48.5685 36.3024 47.4048C36.4487 47.3246 36.5819 47.2194 36.794 47.0792C33.4235 45.7517 30.1615 44.4661 26.8355 43.157C26.4951 45.8102 26.1646 48.4032 25.821 51.0931ZM26.3554 10.1869C26.3554 11.8015 26.3817 13.3159 26.3422 14.8287C26.3258 15.4432 26.5346 15.6068 27.1182 15.6034C30.5397 15.5801 33.9628 15.5918 37.3842 15.5918C37.5486 15.5918 37.7361 15.6402 37.8692 15.5734C38.0222 15.4983 38.2326 15.3229 38.2359 15.1877C38.2638 13.9671 38.2523 12.7449 38.2523 11.4793C34.2702 11.0468 30.3506 10.621 26.3554 10.1869ZM10.3464 54.8817C9.11003 55.4861 7.8424 55.6431 6.50736 55.2858C5.77243 57.5833 5.05723 59.8207 4.33052 62.0965C7.13871 62.0965 9.85811 62.0965 12.6548 62.0965C11.8853 59.6955 11.1307 57.3345 10.3464 54.8817ZM38.0863 45.5747C37.764 43.0401 37.4566 40.6241 37.1409 38.1345C34.3031 39.3751 31.541 40.5823 28.6374 41.853C31.8484 43.1169 34.9082 44.3225 38.0863 45.5747ZM35.5592 36.7837C33.0026 35.5331 30.5874 34.351 28.1097 33.1404C27.794 35.6216 27.4931 37.9809 27.1807 40.4454C29.9922 39.2165 32.7083 38.0293 35.5592 36.7837ZM36.7808 35.301C36.4684 32.8682 36.1709 30.544 35.8618 28.1296C33.6833 29.3518 31.6215 30.5073 29.4644 31.7161C31.9421 32.93 34.3097 34.0905 36.7808 35.301ZM29.3839 23.1455C29.0863 25.4865 28.8035 27.7239 28.4993 30.1116C30.64 28.9094 32.6245 27.7957 34.6895 26.6369C32.8793 25.4464 31.1842 24.3293 29.3839 23.1455ZM35.4557 24.9037C35.1482 22.4977 34.8555 20.2085 34.5481 17.8008C33.093 19.0881 31.7333 20.292 30.3325 21.5309C32.0655 22.673 33.7112 23.7566 35.4557 24.9037ZM38.4431 48.3632C36.8055 49.2681 35.2699 50.1164 33.5846 51.0481C35.4425 51.0481 37.0899 51.0481 38.7867 51.0481C38.6716 50.1598 38.5647 49.3232 38.4431 48.3632ZM9.73151 8.36692C9.73151 8.81273 9.75124 9.20344 9.72658 9.59249C9.70027 9.9999 9.85318 10.1418 10.2576 10.1318C11.1372 10.1084 12.0185 10.1251 12.8998 10.1251C14.0424 10.1251 14.0441 10.1251 13.8945 8.93462C13.8928 8.91625 13.8764 8.89956 13.8336 8.82275C12.515 8.67582 11.1586 8.52554 9.73151 8.36692ZM31.9191 17.6372C31.8994 17.5937 31.8797 17.552 31.8599 17.5086C31.3914 17.5086 30.9228 17.4885 30.4558 17.5219C30.3194 17.532 30.0991 17.6756 30.0777 17.7891C29.984 18.2817 29.9494 18.7859 29.8755 19.4454C30.6433 18.7642 31.2812 18.2015 31.9191 17.6372Z" fill="white"/>
<path d="M56.5564 7.8728C56.7553 8.04812 57.117 8.22344 57.2173 8.49727C57.316 8.76944 57.2683 9.26033 57.0825 9.44901C56.4051 10.1369 55.6619 10.7647 54.9024 11.3608C54.5176 11.663 54.0721 11.5679 53.7449 11.1939C53.4358 10.8415 53.3717 10.374 53.6956 10.0585C54.4305 9.34048 55.2328 8.69263 56.0187 8.02976C56.1174 7.94627 56.2867 7.94794 56.5564 7.8728Z" fill="white"/>
<path d="M53.002 29.4855C53.002 29.3202 52.9921 29.1532 53.0036 28.9879C53.0431 28.4068 53.4097 28.0178 53.9095 28.0161C54.3847 28.0144 54.7809 28.3784 54.8253 28.9194C54.8599 29.3302 54.8582 29.7493 54.8204 30.16C54.7678 30.7211 54.3995 31.0366 53.8882 31.0249C53.3752 31.0116 53.053 30.6827 53.0086 30.1083C52.9921 29.9029 53.0053 29.6942 53.0053 29.4871C53.0036 29.4855 53.0036 29.4855 53.002 29.4855Z" fill="white"/>
<path d="M5.61475 50.0829C5.6164 48.6853 6.69495 47.595 8.07274 47.5967C9.44395 47.6 10.5357 48.707 10.5324 50.0896C10.5291 51.4587 9.40613 52.5991 8.06452 52.5975C6.71468 52.5958 5.61147 51.4637 5.61475 50.0829ZM8.77314 50.2064C8.77149 50.1113 8.76821 50.0178 8.76656 49.9226C8.52323 49.774 8.27003 49.4985 8.03821 49.5152C7.83434 49.5302 7.4792 49.9092 7.5088 50.0662C7.55319 50.3083 7.85407 50.6439 8.07602 50.6706C8.28812 50.6957 8.53967 50.3751 8.77314 50.2064Z" fill="white"/>
<path d="M17.7533 42.7179C17.7632 44.1088 16.6797 45.2325 15.3216 45.2425C13.9751 45.2525 12.8455 44.1288 12.8307 42.7597C12.8143 41.3955 13.9307 40.2484 15.2805 40.2417C16.655 40.2351 17.7451 41.3254 17.7533 42.7179ZM15.4762 42.03C15.3808 42.0267 15.2838 42.0216 15.1884 42.0183C15.0207 42.2554 14.7018 42.5109 14.7264 42.7246C14.7527 42.9567 15.0733 43.2639 15.315 43.3207C15.4614 43.3541 15.8412 42.9884 15.8609 42.7764C15.8855 42.5426 15.6176 42.2804 15.4762 42.03Z" fill="white"/>
<path d="M11.2181 44.7817C11.5255 44.947 11.7639 45.0272 11.9398 45.1825C12.2785 45.4797 12.5942 45.8086 12.8951 46.1459C13.2798 46.5783 13.2683 47.111 12.8967 47.48C12.5399 47.834 12.0352 47.8507 11.6307 47.4833C11.2674 47.1527 10.8777 46.8221 10.613 46.4147C10.4502 46.1643 10.3894 45.7268 10.493 45.453C10.5949 45.1808 10.9566 45.0088 11.2181 44.7817Z" fill="white"/>
<path d="M32.3022 12.7098C32.9993 12.7098 33.6964 12.6947 34.3935 12.7148C35.0002 12.7315 35.3504 13.0771 35.3603 13.6164C35.3702 14.1507 35.0249 14.5548 34.433 14.5665C33.019 14.5949 31.6034 14.5949 30.1895 14.5665C29.5943 14.5548 29.249 14.1591 29.254 13.6231C29.2589 13.0821 29.6058 12.7315 30.2125 12.7148C30.908 12.6947 31.6051 12.7098 32.3022 12.7098Z" fill="white"/>
</g>
<defs>
<clipPath id="clip0_644_335">
<rect width="63" height="64" fill="white"/>
</clipPath>
</defs>
</svg>
