<svg width="60" height="61" viewBox="0 0 60 61" fill="none" xmlns="http://www.w3.org/2000/svg">
<g clip-path="url(#clip0_644_346)">
<path d="M60.0003 35.4093C58.5759 35.4093 57.1516 35.4093 55.8648 35.4093C55.1569 37.4876 54.5525 39.4952 53.7869 41.4354C53.0144 43.3929 51.8991 45.1709 50.5783 46.8694C50.0758 46.469 49.592 46.084 49.0674 45.6663C51.3626 42.6178 52.9126 39.2587 53.6833 35.4524C52.5544 35.4524 51.4713 35.4524 50.3271 35.4524C50.3271 34.125 50.3271 32.8614 50.3271 31.5461C49.322 31.5461 48.3782 31.5461 47.4665 31.5461C46.088 41.3077 40.6063 46.8712 30.9637 48.3056C30.9603 48.3315 30.9399 48.4265 30.9399 48.5231C30.9365 49.3741 30.9382 50.2269 30.9382 51.1866C31.6088 51.1866 32.2437 51.1866 32.8769 51.1866C33.4983 51.1866 34.1179 51.1866 34.8021 51.1866C34.8021 52.3518 34.8021 53.4548 34.8021 54.6217C38.6099 53.8294 41.961 52.2223 45.01 49.8195C45.4124 50.3356 45.7943 50.8258 46.2052 51.3523C42.8201 54.0694 39.0309 55.7904 34.819 56.6362C34.819 58.1017 34.819 59.5293 34.819 60.9983C31.5901 60.9983 28.3985 60.9983 25.1475 60.9983C25.1475 59.7571 25.1255 58.5298 25.1577 57.3042C25.1713 56.8036 25.0474 56.5965 24.5262 56.4877C20.6623 55.6695 17.1669 54.021 14.0313 51.5802C13.9549 51.5215 13.8836 51.4559 13.7597 51.3489C13.9549 51.0951 14.1417 50.85 14.3301 50.6083C14.5236 50.3598 14.7172 50.1129 14.9464 49.8212C17.9665 52.2068 21.3193 53.8156 25.1238 54.62C25.1238 53.4721 25.1238 52.3742 25.1238 51.1918C26.4445 51.1918 27.7025 51.1918 28.9876 51.1918C28.9876 50.1613 28.9876 49.2153 28.9876 48.2987C19.3687 46.9005 13.8972 41.3266 12.4848 31.5288C11.6071 31.5288 10.6615 31.5288 9.65139 31.5288C9.65139 32.8269 9.65139 34.0905 9.65139 35.4162C8.50548 35.4162 7.42068 35.4162 6.27137 35.4162C7.04889 39.2897 8.62941 42.6955 10.9942 45.7975C10.49 46.2066 10.0079 46.5967 9.49011 47.0162C6.81462 43.5793 5.12716 39.7247 4.28852 35.4438C2.85231 35.4438 1.44835 35.4438 0.00195312 35.4438C0.00195312 32.1606 0.00195312 28.9171 0.00195312 25.6252C1.411 25.6252 2.81156 25.6252 4.27833 25.6252C5.11697 21.3529 6.79934 17.4949 9.47993 14.0287C9.98073 14.4292 10.4629 14.8141 10.8703 15.1404C9.91452 16.82 8.91631 18.4288 8.06409 20.1135C7.20678 21.8086 6.65164 23.6298 6.27986 25.5838C7.39861 25.5838 8.47831 25.5838 9.6412 25.5838C9.6412 26.9285 9.6412 28.2059 9.6412 29.5143C10.6547 29.5143 11.585 29.5143 12.4899 29.5143C13.8667 19.7424 19.3399 14.1703 28.9859 12.7393C28.9859 11.8468 28.9859 10.8853 28.9859 9.8548C28.3306 9.8548 27.711 9.8548 27.0896 9.8548C26.4683 9.8548 25.847 9.8548 25.1628 9.8548C25.1628 8.69308 25.1628 7.59004 25.1628 6.43005C23.2224 6.79945 21.4144 7.36737 19.732 8.24772C18.0734 9.11599 16.4912 10.1327 14.8377 11.1046C14.5287 10.7093 14.1536 10.2294 13.7427 9.70117C17.1278 6.97207 20.9323 5.25106 25.1713 4.39832C25.1713 2.89654 25.1713 1.44827 25.1713 0C28.3765 0 31.5816 0 34.7885 0C34.7885 1.46208 34.7885 2.92243 34.7885 4.39832C39.0547 5.26314 42.8387 6.9807 46.2103 9.69254C45.7841 10.2311 45.3988 10.7179 45.0032 11.215C41.9458 8.80873 38.6014 7.20338 34.7868 6.41796C34.7868 7.60213 34.7868 8.70343 34.7868 9.86689C33.4796 9.86689 32.2403 9.86689 30.9773 9.86689C30.9773 10.8957 30.9773 11.8572 30.9773 12.8152C39.4282 13.2727 46.891 20.3984 47.4037 29.5092C48.3476 29.5092 49.2932 29.5092 50.322 29.5092C50.322 28.2007 50.322 26.9233 50.322 25.5786C51.4832 25.5786 52.5629 25.5786 53.7376 25.5786C53.4456 24.5377 53.2131 23.5763 52.9058 22.6407C52.0264 19.9668 50.7175 17.5225 48.9791 15.2595C49.4918 14.8452 49.9722 14.4568 50.4815 14.046C51.8312 15.7359 52.9584 17.5277 53.7461 19.4956C54.5355 21.4686 55.1484 23.5141 55.8733 25.6287C57.1567 25.6287 58.581 25.6287 60.0054 25.6287C60.0003 28.8929 60.0003 32.1502 60.0003 35.4093ZM45.4633 30.5414C45.4803 21.8829 38.5471 14.8107 30.0113 14.7779C21.4993 14.7468 14.5355 21.7879 14.4914 30.4724C14.4472 39.1413 21.4263 46.2601 29.9722 46.2653C38.4944 46.2687 45.4446 39.2121 45.4633 30.5414ZM32.8549 7.84897C32.8549 5.86558 32.8549 3.95297 32.8549 2.01791C30.9178 2.01791 29.0199 2.01791 27.1083 2.01791C27.1083 3.98922 27.1083 5.91564 27.1083 7.84897C29.0436 7.84897 30.9297 7.84897 32.8549 7.84897ZM1.93558 33.4431C3.8658 33.4431 5.76208 33.4431 7.65835 33.4431C7.65835 31.4684 7.65835 29.5385 7.65835 27.5914C5.73661 27.5914 3.85562 27.5914 1.93558 27.5914C1.93558 29.554 1.93558 31.4857 1.93558 33.4431ZM52.276 33.4518C54.2181 33.4518 56.1008 33.4518 58.0191 33.4518C58.0191 31.4874 58.0191 29.5575 58.0191 27.6C56.0872 27.6 54.1909 27.6 52.276 27.6C52.276 29.561 52.276 31.4787 52.276 33.4518ZM32.865 53.2218C30.9161 53.2218 29.0029 53.2218 27.1049 53.2218C27.1049 55.1879 27.1049 57.1005 27.1049 59.0183C29.0453 59.0183 30.9433 59.0183 32.8939 59.0183C32.8939 57.1903 32.8939 55.4106 32.8922 53.6292C32.8905 53.498 32.8735 53.3633 32.865 53.2218Z" fill="white"/>
<path d="M8.61227 8.81727C8.00111 8.81727 7.40864 8.81727 6.77881 8.81727C6.77881 8.19239 6.77881 7.58822 6.77881 6.94263C7.37638 6.94263 7.97056 6.94263 8.61227 6.94263C8.61227 7.55024 8.61227 8.16649 8.61227 8.81727Z" fill="white"/>
<path d="M10.6514 10.8577C11.2795 10.8577 11.8601 10.8577 12.4865 10.8577C12.4865 11.4739 12.4865 12.0781 12.4865 12.734C11.9008 12.734 11.2948 12.734 10.6514 12.734C10.6514 12.1281 10.6514 11.524 10.6514 10.8577Z" fill="white"/>
<path d="M16.3637 16.6958C15.7372 16.6958 15.1448 16.6958 14.52 16.6958C14.52 16.0588 14.52 15.4546 14.52 14.8125C15.1295 14.8125 15.7237 14.8125 16.3637 14.8125C16.3637 15.4184 16.3637 16.0208 16.3637 16.6958Z" fill="white"/>
<path d="M14.5288 44.3508C15.1535 44.3508 15.7477 44.3508 16.3759 44.3508C16.3759 44.9895 16.3759 45.5937 16.3759 46.2324C15.7596 46.2324 15.1654 46.2324 14.5288 46.2324C14.5288 45.6248 14.5288 45.0206 14.5288 44.3508Z" fill="white"/>
<path d="M43.5908 44.3474C44.2173 44.3474 44.8097 44.3474 45.4345 44.3474C45.4345 44.9844 45.4345 45.5885 45.4345 46.2307C44.825 46.2307 44.2308 46.2307 43.5908 46.2307C43.5908 45.6248 43.5908 45.0224 43.5908 44.3474Z" fill="white"/>
<path d="M10.6392 50.156C10.6392 49.5173 10.6392 48.9269 10.6392 48.2969C11.2554 48.2969 11.8479 48.2969 12.4879 48.2969C12.4879 48.8976 12.4879 49.5017 12.4879 50.156C11.9005 50.156 11.2911 50.156 10.6392 50.156Z" fill="white"/>
<path d="M47.4595 48.2798C48.0825 48.2798 48.6631 48.2798 49.2896 48.2798C49.2896 48.9012 49.2896 49.5192 49.2896 50.1717C48.6869 50.1717 48.0927 50.1717 47.4595 50.1717C47.4595 49.5537 47.4595 48.9513 47.4595 48.2798Z" fill="white"/>
<path d="M6.76514 54.0917C6.76514 53.4565 6.76514 52.8661 6.76514 52.2361C7.37969 52.2361 7.97217 52.2361 8.61218 52.2361C8.61218 52.8333 8.61218 53.4375 8.61218 54.0917C8.02819 54.0917 7.42043 54.0917 6.76514 54.0917Z" fill="white"/>
<path d="M51.3252 54.0987C51.3252 53.4687 51.3252 52.8645 51.3252 52.2275C51.9499 52.2275 52.5424 52.2275 53.174 52.2275C53.174 52.8472 53.174 53.4514 53.174 54.0987C52.5815 54.0987 51.9873 54.0987 51.3252 54.0987Z" fill="white"/>
<path d="M51.332 6.92383C51.9568 6.92383 52.5374 6.92383 53.1638 6.92383C53.1638 7.54698 53.1638 8.16496 53.1638 8.81746C52.5577 8.81746 51.9636 8.81746 51.332 8.81746C51.332 8.19258 51.332 7.59014 51.332 6.92383Z" fill="white"/>
<path d="M47.4463 12.7461C47.4463 12.116 47.4463 11.5257 47.4463 10.887C48.0558 10.887 48.6635 10.887 49.3052 10.887C49.3052 11.4963 49.3052 12.1005 49.3052 12.7461C48.6992 12.7461 48.1067 12.7461 47.4463 12.7461Z" fill="white"/>
<path d="M43.5854 14.7969C44.2119 14.7969 44.7925 14.7969 45.4189 14.7969C45.4189 15.42 45.4189 16.0397 45.4189 16.6922C44.8112 16.6922 44.2187 16.6922 43.5854 16.6922C43.5854 16.0673 43.5854 15.4632 43.5854 14.7969Z" fill="white"/>
<path d="M33.561 30.4984C36.2993 33.3 34.2689 37.8882 29.9772 37.4445C29.9772 37.7622 29.9772 38.0712 29.9772 38.3819C29.9772 38.6788 29.9772 38.9739 29.9772 39.3209C29.3406 39.3209 28.7295 39.3209 28.0521 39.3209C28.0521 38.715 28.0521 38.1091 28.0521 37.4307C27.0641 37.4307 26.1372 37.4307 25.1797 37.4307C25.1797 32.8011 25.1797 28.244 25.1797 23.6316C26.1219 23.6316 27.0318 23.6316 28.0131 23.6316C28.0131 22.9756 28.0131 22.3715 28.0131 21.7207C28.6921 21.7207 29.3016 21.7207 29.9671 21.7207C29.9671 22.3335 29.9671 22.9411 29.9671 23.6161C31.8396 23.5297 33.4557 23.9682 34.3538 25.7583C35.2349 27.5121 34.8257 29.0984 33.561 30.4984ZM27.0946 29.5472C28.1064 29.5472 29.0418 29.5576 29.9772 29.5438C30.4628 29.5369 30.9602 29.5455 31.4304 29.4471C32.2776 29.2693 32.8734 28.4597 32.8853 27.588C32.8955 26.7111 32.2657 25.7496 31.4151 25.6892C29.9874 25.5891 28.5478 25.6616 27.0946 25.6616C27.0946 26.9562 27.0946 28.2163 27.0946 29.5472ZM27.0929 35.4025C28.5224 35.4025 29.9246 35.4577 31.3201 35.3818C32.1706 35.3369 32.8327 34.4565 32.8819 33.5537C32.9311 32.6544 32.3098 31.6774 31.4118 31.6083C29.9857 31.4978 28.5461 31.579 27.0929 31.579C27.0929 32.8425 27.0929 34.1026 27.0929 35.4025Z" fill="white"/>
<path d="M38.7592 20.098C38.3671 20.5624 37.9749 21.0267 37.5369 21.5446C35.0482 19.4818 32.2114 18.484 29.0147 18.7568C25.8316 19.0295 23.2054 20.4588 21.102 22.9014C18.3365 26.1138 16.6694 32.6802 21.1172 38.2282C20.6623 38.6286 20.2073 39.0291 19.7506 39.4296C15.953 35.43 14.6153 27.1581 19.99 21.208C25.5362 15.0731 34.1773 15.8568 38.7592 20.098Z" fill="white"/>
<path d="M21.1953 40.9468C21.5858 40.4825 21.9779 40.0199 22.4108 39.5037C25.3546 41.898 28.6735 42.8404 32.3794 42.0688C34.9497 41.5337 37.0683 40.1838 38.8084 38.1849C41.6028 34.9777 43.3174 28.4786 38.8356 22.815C39.2889 22.4145 39.7438 22.014 40.1988 21.6135C44.0491 25.6597 45.1491 33.702 40.2616 39.4692C34.9683 45.7197 26.2017 45.5419 21.1953 40.9468Z" fill="white"/>
</g>
<defs>
<clipPath id="clip0_644_346">
<rect width="60" height="61" fill="white"/>
</clipPath>
</defs>
</svg>
